{"title":"Frozen 2013 1080p.BluRay.5.1.x264 . NVEE","uid":9722239,"size":2100075756,"categoryP":"video","categoryS":"hd___movies","magnet":"?xt=urn:btih:38bdc25d8ced5792da4c8776380f020361e034c4&amp;dn=Frozen+2013+1080p.BluRay.5.1.x264+.+NVEE&amp;tr=udp%3A%2F%2Ftracker.openbittorrent.com%3A80&amp;tr=udp%3A%2F%2Fopen.demonii.com%3A1337&amp;tr=udp%3A%2F%2Ftracker.coppersurfer.tk%3A6969&amp;tr=udp%3A%2F%2Fexodus.desync.com%3A6969","seeders":4,"leechers":0,"uploader":".NVEE","files":-1,"time":1394250058,"description":"FULL_INFOs\n\n\n99.99% --- SYNCED GUARANTEED \n\n&quot;Totally scrutinized / analyzed to be a verified torrent.&quot;\n___________________________________________\n\nSource : Blu-ray ~ 1080p\n\nSpoken Language : English\n\nAudio : 6 ~ Channels Only\n\nSubs Info : Nil \n\nAll .srt &amp; .idx subs can be turned On/Off\n_____________________________________\n\n\n &lt;a href=&quot;\nhttp://www.imdb.com/title/tt2294629/&quot; rel=&quot;nofollow&quot; target=&quot;_NEW&quot;&gt;\nhttp://www.imdb.com/title/tt2294629/&lt;/a&gt;\n\n\n\n---------------------------------------------------------------------------------\n\n\nGeneral Metadata\n\nComplete name : Frozen 2013.1080p.BluRay.5.1.x264 . NVEE.mp4\nFormat : MPEG-4\nFormat profile : Base Media\nCodec ID : isom\nFile size : 1.95 GiB\nDuration : 1h 42mn\nOverall bit rate : 2 737 Kbps\nEncoded date : UTC 2014-03-01 21:59:59\nTagged date : UTC 2014-03-01 21:59:59\n\n\nVideo\n\nID : 1\nFormat : AVC\nFormat/Info : Advanced Video Codec\nFormat profile : &lt;a class=&quot;__cf_email__&quot; href=&quot;/cdn-cgi/l/email-protection&quot; data-cfemail=&quot;1159787679515d253f21&quot;&gt;[email&amp;#160;protected]&lt;/a&gt;&lt;script cf-hash='f9e31' type=&quot;text/javascript&quot;&gt;\n/* &lt;![CDATA[ */!function(){try{var t=&quot;currentScript&quot;in document?document.currentScript:function(){for(var t=document.getElementsByTagName(&quot;script&quot;),e=t.length;e--;)if(t[e].getAttribute(&quot;cf-hash&quot;))return t[e]}();if(t&amp;&amp;t.previousSibling){var e,r,n,i,c=t.previousSibling,a=c.getAttribute(&quot;data-cfemail&quot;);if(a){for(e=&quot;&quot;,r=parseInt(a.substr(0,2),16),n=2;a.length-n;n+=2)i=parseInt(a.substr(n,2),16)^r,e+=String.fromCharCode(i);e=document.createTextNode(e),c.parentNode.replaceChild(e,c)}}}catch(u){}}();/* ]]&gt; */&lt;/script&gt;\nFormat settings, CABAC : Yes\nFormat settings, ReFrames : 3 frames\nCodec ID : avc1\nCodec ID/Info : Advanced Video Coding\nDuration : 1h 42mn\nBit rate : 2 288 Kbps\nMaximum bit rate : 27.2 Mbps\nWidth : 1 920 pixels\nHeight : 856 pixels\nDisplay aspect ratio : 2.25:1\nOriginal display aspect ratio : 2.25:1\nFrame rate mode : Constant\nFrame rate : 23.976 fps\nColor space : YUV\nChroma subsampling : 4:2:0\nBit depth : 8 bits\nScan type : Progressive\nBits/(Pixel*Frame) : 0.058\nStream size : 1.63 GiB (84%)\nWriting library : x264 core 138 r2358 9e941d1\n\n\nAudio\n\nID : 2\nFormat : AC-3\nFormat/Info : Audio Coding 3\nMode extension : CM (complete main)\nFormat settings, Endianness : Big\nCodec ID : ac-3\nDuration : 1h 42mn\nBit rate mode : Constant\nBit rate : 448 Kbps\nChannel(s) : 6 channels\nChannel positions : Front: L C R, Side: L R, LFE\nSampling rate : 48.0 KHz\nBit depth : 16 bits\nCompression mode : Lossy\nStream size : 328 MiB (16%)\nLanguage : English\nEncoded date : UTC 2014-03-01 22:07:32\nTagged date : UTC 2014-03-01 22:08:26\t\n\n\nSynopsis\n\nElsa, princess of Arendelle, possesses the magical ability to create ice and snow. One night while playing, she accidentally injures her younger sister, Anna. The king and queen seek help from trolls, who heal Anna and remove her memories of her sister's magic. The royal couple isolates the children in their castle until Elsa learns to control her powers. Afraid of hurting her sister again, Elsa spends most of her time alone in her room, causing a rift between the girls as they grow up. When the girls are teenagers, their parents die at sea during a storm. When Elsa comes of age, the kingdom prepares for her coronation. Excited to be allowed out of the castle again, Anna explores the town and meets Prince Hans of the Southern Isles, and the two immediately develop a mutual attraction. During the coronation reception, Hans proposes and Anna hastily accepts. However, Elsa refuses to grant her blessing and forbids their sudden marriage. The sisters argue, culminating in Elsa's abilities being exposed in an emotional outburst. Panicking, Elsa flees the palace, inadvertently unleashing an eternal winter on the kingdom in the process.\n\nEnj0y !\n","torrent":{"xt":"urn:btih:38bdc25d8ced5792da4c8776380f020361e034c4","amp;dn":"Frozen+2013+1080p.BluRay.5.1.x264+.+NVEE","amp;tr":["udp%3A%2F%2Ftracker.openbittorrent.com%3A80","udp%3A%2F%2Fopen.demonii.com%3A1337","udp%3A%2F%2Ftracker.coppersurfer.tk%3A6969","udp%3A%2F%2Fexodus.desync.com%3A6969"],"infoHash":"38bdc25d8ced5792da4c8776380f020361e034c4","infoHashBuffer":{"type":"Buffer","data":[56,189,194,93,140,237,87,146,218,76,135,118,56,15,2,3,97,224,52,196]},"announce":[],"urlList":[]}}